<svg xmlns="http://www.w3.org/2000/svg" width="36" height="37" viewBox="0 0 36 37">
    <g fill="none" fill-rule="evenodd" transform="translate(0 .5)">
        <circle cx="18" cy="18" r="18" fill="#FFF"/>
        <path fill="#28324D" d="M14.29 9.055c-.958.043-1.613.195-2.185.418a4.417 4.417 0 0 0-1.594 1.038c-.5.5-.809 1.001-1.038 1.594-.223.572-.375 1.226-.418 2.184C9.01 15.25 9 15.556 9 18s.01 2.75.055 3.71c.043.959.195 1.613.418 2.185a4.4 4.4 0 0 0 1.038 1.594c.5.5 1.002.808 1.594 1.038.573.223 1.227.375 2.185.418.96.044 1.266.055 3.71.055 2.445 0 2.751-.01 3.711-.055.958-.043 1.613-.195 2.185-.418a4.426 4.426 0 0 0 1.594-1.038c.5-.5.808-1.002 1.038-1.594.223-.572.375-1.226.418-2.185.044-.96.054-1.266.054-3.71s-.01-2.75-.054-3.71c-.043-.959-.195-1.613-.418-2.185a4.426 4.426 0 0 0-1.038-1.594c-.5-.5-1.003-.809-1.594-1.038-.572-.223-1.227-.376-2.184-.418-.96-.044-1.267-.055-3.71-.055-2.446 0-2.752.01-3.712.055m7.46 4.07a1.125 1.125 0 1 0 2.25 0 1.125 1.125 0 0 0-2.25 0M13.5 18a4.5 4.5 0 1 0 9 0 4.5 4.5 0 0 0-9 0m1.5 0a3 3 0 1 1 6 0 3 3 0 0 1-6 0"/>
    </g>
</svg>
