<svg xmlns="http://www.w3.org/2000/svg" width="36" height="37" viewBox="0 0 36 37">
    <g fill="none" fill-rule="evenodd" transform="translate(0 .5)">
        <circle cx="18" cy="18" r="18" fill="#FFF"/>
        <path fill="#243143" d="M23.826 19.016s2.47-3.571 2.716-4.745c.082-.419-.098-.654-.524-.654h-2.143c-.49 0-.67.218-.818.537 0 0-1.159 2.53-2.569 4.124-.452.516-.683.671-.932.671-.202 0-.295-.172-.295-.637v-4.074c0-.57-.065-.738-.523-.738h-3.436c-.262 0-.426.156-.426.369 0 .537.802.658.802 2.112v3.001c0 .604-.033.839-.31.839-.737 0-2.488-2.599-3.47-5.55-.196-.603-.409-.771-.965-.771H8.79c-.31 0-.54.218-.54.536 0 .587.67 3.303 3.305 6.942 1.767 2.447 4.09 3.772 6.185 3.772 1.276 0 1.587-.218 1.587-.771V22.1c0-.47.18-.67.441-.67.295 0 .815.096 2.03 1.324 1.439 1.408 1.537 1.995 2.322 1.995h2.406c.245 0 .474-.117.474-.537 0-.553-.704-1.542-1.783-2.716-.442-.603-1.162-1.257-1.391-1.559-.327-.352-.23-.553 0-.922"/>
    </g>
</svg>
